<svg width="286" height="35" viewBox="0 0 286 35" fill="none" xmlns="http://www.w3.org/2000/svg">
<path d="M5.712 15.9361H22.464V21.2161H5.712V15.9361ZM6.24 34.0801H-8.34465e-07V0.480076H24.528V5.71208H6.24V34.0801ZM24.3574 34.0801L39.4774 0.480076H45.6214L60.7894 34.0801H54.2614L41.2534 3.79208H43.7494L30.7894 34.0801H24.3574ZM31.3174 26.3041L32.9974 21.4081H51.1414L52.8214 26.3041H31.3174ZM73.2173 34.0801L58.5292 0.480076H65.2972L78.4012 30.8641H74.5132L87.7613 0.480076H94.0013L79.3612 34.0801H73.2173ZM103.307 14.4481H120.011V19.5841H103.307V14.4481ZM103.787 28.8481H122.747V34.0801H97.5469V0.480076H122.075V5.71208H103.787V28.8481ZM158.521 34.5601C155.961 34.5601 153.577 34.1441 151.369 33.3121C149.193 32.4481 147.289 31.2481 145.657 29.7121C144.057 28.1441 142.809 26.3041 141.913 24.1921C141.017 22.0801 140.569 19.7761 140.569 17.2801C140.569 14.7841 141.017 12.4801 141.913 10.3681C142.809 8.25608 144.073 6.43208 145.705 4.89608C147.337 3.32808 149.241 2.12808 151.417 1.29608C153.593 0.432076 155.977 7.62939e-05 158.569 7.62939e-05C161.321 7.62939e-05 163.833 0.480077 166.105 1.44008C168.377 2.36808 170.297 3.76008 171.865 5.61608L167.833 9.40808C166.617 8.09608 165.257 7.12008 163.753 6.48008C162.249 5.80808 160.617 5.47208 158.857 5.47208C157.097 5.47208 155.481 5.76008 154.009 6.33608C152.569 6.91208 151.305 7.72808 150.217 8.78408C149.161 9.84008 148.329 11.0881 147.721 12.5281C147.145 13.9681 146.857 15.5521 146.857 17.2801C146.857 19.0081 147.145 20.5921 147.721 22.0321C148.329 23.4721 149.161 24.7201 150.217 25.7761C151.305 26.8321 152.569 27.6481 154.009 28.2241C155.481 28.8001 157.097 29.0881 158.857 29.0881C160.617 29.0881 162.249 28.7681 163.753 28.1281C165.257 27.4561 166.617 26.4481 167.833 25.1041L171.865 28.9441C170.297 30.7681 168.377 32.1601 166.105 33.1201C163.833 34.0801 161.305 34.5601 158.521 34.5601ZM201.46 0.480076H207.7V34.0801H201.46V0.480076ZM184.084 34.0801H177.844V0.480076H184.084V34.0801ZM201.94 19.6801H183.556V14.3521H201.94V19.6801ZM216.703 34.0801V0.480076H222.943V34.0801H216.703ZM232.031 34.0801V0.480076H238.271V28.8001H255.839V34.0801H232.031ZM266.526 14.4481H283.23V19.5841H266.526V14.4481ZM267.006 28.8481H285.966V34.0801H260.766V0.480076H285.294V5.71208H267.006V28.8481Z" fill="#5C723B"/>
</svg>
