<?xml version="1.0" encoding="UTF-8"?>
<svg id="Capa_2" data-name="Capa 2" xmlns="http://www.w3.org/2000/svg" viewBox="0 0 551.49 551.49">
  <defs>
    <style>
      .cls-1 {
        fill: #fff;
      }

      .cls-2 {
        fill: #5c723b;
      }
    </style>
  </defs>
  <g id="Capa_1-2" data-name="Capa 1">
    <g>
      <circle class="cls-1" cx="275.74" cy="275.74" r="274.21"/>
      <path class="cls-2" d="M380.49,240.81l-64.52-.14.18,199.21h181.18c34.02-45.87,54.16-102.65,54.16-164.14C551.49,123.46,428.03,0,275.74,0S0,123.46,0,275.75s123.46,275.74,275.74,275.74c37.08,0,72.44-7.34,104.73-20.61l-154.01.02-.16-212.07-69.49-.14c-38.34-2.34-68.4-32.83-70.34-71.27l.52-100.71c.05-9.02,10.11-16.24,17.64-18.15l.99,121.08c.2,24.92,20.74,43.77,43.11,49.91l31.17.62,64.82-.03.05,212.14h172.76c8.65-5.2,16.98-10.86,24.98-16.94l-181.08-.02-.02-472.92c6.68-1.19,12.38-1.26,18.43.6v453.84s184.54.01,184.54.01c6.16-5.78,12.06-11.85,17.67-18.17h-184.34s-.09-236.77-.09-236.77l79.88.05c33.57.4,59.86-27.18,58.07-60.59l.13-99.12c10.74,2.97,18.41,12.15,18.33,22.56-.24,29.46,1.3,57.83-.46,87.43-2.26,38.22-35.92,67.27-73.09,68.58ZM159.95,280.48c-20.17-.08-34.48-17.83-35.53-37.01v-115.2c10.99,2.46,18.98,11.91,18.99,24.23l.07,89.44c-.19,12.6,9.61,20.42,21.57,20.37l61.3-.29V58.03c0-13.14,5.89-24.79,18.39-29.98v252.77s-84.8-.33-84.8-.33ZM380.2,201.95l-82.54.21V28.28c13.05,6.57,18.42,18.68,18.41,32.33l-.1,123.15,61.19-.13c10.77-.02,18.35-8.4,20.02-18.55l.38-82.47c.05-10.47,8.56-18.25,18.6-21.23l.05,101.02c-.69,20.01-14.99,39.49-36.03,39.54Z"/>
    </g>
  </g>
</svg>