<?xml version="1.0" encoding="UTF-8"?>
<svg id="Capa_2" data-name="Capa 2" xmlns="http://www.w3.org/2000/svg" viewBox="0 0 820.29 378.84">
  <defs>
    <style>
      .cls-1 {
        fill: #5c723b;
      }
    </style>
  </defs>
  <g id="Capa_1-2" data-name="Capa 1">
    <g>
      <path class="cls-1" d="M117.74,364.98l-.04-157.78-48.21.02-23.19-.46c-16.64-4.57-31.91-18.58-32.06-37.12l-.74-90.05c-5.6,1.42-13.08,6.79-13.12,13.5l-.39,74.9c1.44,28.59,23.79,51.27,52.31,53.01l51.68.11.12,157.72,455.58-.05c.47-4.89.53-9.1-.08-13.81H117.74Z"/>
      <path class="cls-1" d="M170.81,311.15l-.13-148.16,47.99.11c27.64-.98,52.67-22.58,54.36-51.01,1.3-22.01.16-43.11.34-65.02.06-7.75-5.64-14.57-13.63-16.78l-.1,73.72c1.33,24.85-18.22,45.36-43.19,45.06l-59.41-.04.07,176.09,402.81.02c.29-5.15.53-9.82-.68-14l-388.42.03Z"/>
      <path class="cls-1" d="M559.4,352.42c.69-5.07.91-9.61-.23-13.77l-415.35-.03V1.08c-4.5-1.38-8.74-1.33-13.71-.44l.02,351.73,429.27.06Z"/>
      <polygon class="cls-1" points="820.29 245.2 820.19 222.45 746.64 222.66 746.67 189.02 808.46 188.9 808.28 166.93 746.71 167.01 746.62 134.94 817.45 134.97 817.21 111.78 718.37 111.75 718.4 245.2 820.29 245.2"/>
      <path class="cls-1" d="M476.06,111.93l-58.93,133.17,29.19.04,12.33-29.47,62.38.13,12.11,29.53,30.26-.26-59.09-133.24-28.24.09ZM467.44,193.73l22.42-52.6,22,52.61h-44.42Z"/>
      <polygon class="cls-1" points="630.93 209.67 588.42 111.87 558.81 112.27 616.59 245.07 643.61 245.16 701.74 111.75 673.86 111.77 630.93 209.67"/>
      <polygon class="cls-1" points="343.37 193.39 404.08 193.33 404.17 171.01 343.14 170.95 343.25 134.93 412.93 134.9 412.83 111.74 315.27 111.82 315.1 142.1 315.07 245.15 343.4 245.17 343.37 193.39"/>
      <path class="cls-1" d="M54.63,192.59l63.07.25V4.84c-9.3,3.86-13.69,12.53-13.69,22.3v151.73s-45.59.21-45.59.21c-8.9.04-16.19-5.77-16.05-15.15l-.05-66.52c0-9.16-5.95-16.19-14.11-18.02v85.68c.77,14.27,11.42,27.47,26.42,27.52Z"/>
      <path class="cls-1" d="M245.24,104.77l-.04-75.13c-7.46,2.22-13.8,8-13.83,15.79l-.28,61.33c-1.24,7.55-6.88,13.78-14.89,13.79l-45.51.1.07-91.59c0-10.16-3.99-19.16-13.69-24.05v129.32s61.38-.15,61.38-.15c15.65-.04,26.28-14.53,26.79-29.41Z"/>
      <path class="cls-1" d="M674.57,323.51c-7.28-.1-12.86,1.47-19.09,6.52l-.24-26.12-12.84.22.05,71.89,12.84-.04.07-29.02c.02-7.71,6.93-12.33,14.01-11.96,6.46.34,10.83,4.47,10.9,11.15l.33,29.97,12.73-.21-.38-35.16c-.11-10.26-8.85-17.1-18.38-17.23Z"/>
      <path class="cls-1" d="M624.9,326.1l8.63-8.22c-8.85-9.21-21.09-11.79-33.29-10.22-16.9,2.17-29.47,15.26-30.24,32.24-.86,19.12,12.14,34.68,31.05,36.69,11.82,1.26,23.41-1.39,32-10.62l-8.4-8.26c-9.04,8.5-22.22,10.46-32.25,2.64-10.51-8.18-11.84-24.15-3.37-33.81,9.39-10.71,25.41-10.48,35.86-.45Z"/>
      <path class="cls-1" d="M783.41,323.62c-14.67.95-25.68,12.51-25.06,27.35.3,7.2,2.68,14.15,8.42,18.84,11.96,9.79,29.96,9.42,40.96-1.31l-7.06-7.6c-6.41,5.46-14.31,6.74-21.66,3.61-4.16-1.78-7.29-5.25-7.23-10.08l38.94.19c1.97-7.95-.39-16.8-5.52-22.81-5.4-6.33-13.25-8.74-21.78-8.19ZM771.88,346.1c-.15-6.6,5.66-11.58,11.23-12.22,7.33-.85,14.2,1.9,15.57,11.89l-26.8.34Z"/>
      <polygon class="cls-1" points="734.96 304.29 735.1 376.03 747.79 375.88 747.73 304.07 734.96 304.29"/>
      <polygon class="cls-1" points="707.54 324.65 707.45 375.79 720.61 375.9 720.59 324.77 707.54 324.65"/>
      <path class="cls-1" d="M713.51,301.39c-4.24.06-7.68,3.03-7.77,7.09-.08,3.62,2.65,7.03,7.21,7.57,5.49.65,8.92-3.09,8.95-7.47.03-4.5-3.41-7.26-8.39-7.19Z"/>
    </g>
  </g>
</svg>