<?xml version="1.0" encoding="UTF-8"?>
<svg id="Capa_2" data-name="Capa 2" xmlns="http://www.w3.org/2000/svg" viewBox="0 0 31.4 31.4">
  <defs>
    <style>
      .cls-1 {
        fill: #fff;
      }

      .cls-2 {
        fill: #5c723b;
      }
    </style>
  </defs>
  <g id="Capa_1-2" data-name="Capa 1">
    <g>
      <circle class="cls-1" cx="15.7" cy="15.7" r="15.61"/>
      <path class="cls-2" d="M21.67,13.71h-3.67s.01,11.34.01,11.34h10.32c1.94-2.61,3.08-5.85,3.08-9.35C31.4,7.03,24.37,0,15.7,0S0,7.03,0,15.7s7.03,15.7,15.7,15.7c2.11,0,4.12-.42,5.96-1.17h-8.77s0-12.08,0-12.08h-3.96c-2.18-.14-3.89-1.88-4.01-4.07l.03-5.73c0-.51.58-.92,1-1.03l.06,6.89c.01,1.42,1.18,2.49,2.45,2.84l1.78.04h3.69s0,12.08,0,12.08h9.84c.49-.3.97-.62,1.42-.96h-10.31s0-26.93,0-26.93c.38-.07.7-.07,1.05.03v25.84s10.51,0,10.51,0c.35-.33.69-.67,1.01-1.03h-10.5s0-13.48,0-13.48h4.55c1.91.03,3.41-1.54,3.31-3.45V3.54c.62.17,1.06.69,1.05,1.28-.01,1.68.07,3.29-.03,4.98-.13,2.18-2.05,3.83-4.16,3.91ZM9.11,15.97c-1.15,0-1.96-1.02-2.02-2.11v-6.56c.63.14,1.08.68,1.08,1.38v5.09c0,.72.55,1.16,1.23,1.16l3.49-.02V3.3c0-.75.34-1.41,1.05-1.71v14.39s-4.83-.02-4.83-.02ZM21.65,11.5h-4.7s0-9.89,0-9.89c.74.37,1.05,1.06,1.05,1.84v7.01s3.48,0,3.48,0c.61,0,1.05-.48,1.14-1.06l.02-4.7c0-.6.49-1.04,1.06-1.21v5.75c-.04,1.14-.85,2.25-2.05,2.25Z"/>
    </g>
  </g>
</svg>